# xmcd
#
# Track frame offsets:
#       150
#       13038
#       28761
#       43266
#       60776
#       77404
#       95274
#       110891
#       129501
#       146068
#       163502
#       180040
#       208665
#
# Disc length: 3180 seconds
#
# Revision: 0
# Processed by: cddbd v1.5.2PL0 Copyright (c) Steve Scherf et al.
# Submitted via: CD-DA_X-Tractor v0.24
#
DISCID=a30c6a0d
DTITLE=Miss Dominique - Si Je N'etais Pas Moi
DYEAR=2009
DGENRE=World
TTITLE0=C'est Trop
TTITLE1=Chacun Son Ton Petit Bout D'etoile
TTITLE2=Mon Reve
TTITLE3=Je Vous Dis Merci
TTITLE4=Comprendre Les Hommes
TTITLE5=Vivre La Vie
TTITLE6=Si Je N'etais Pas Moi
TTITLE7=Les Cinq Doits D'Une Main
TTITLE8=Seule Sous Les Projecteurs
TTITLE9=L'amour Efface La Haine
TTITLE10=Toi, Moi Et Ton Autre
TTITLE11=Le Poids De Ma Differece
TTITLE12=Data Track
EXTD=
EXTT0=
EXTT1=
EXTT2=
EXTT3=
EXTT4=
EXTT5=
EXTT6=
EXTT7=
EXTT8=
EXTT9=
EXTT10=
EXTT11=
EXTT12=
PLAYORDER=
